<svg xmlns="http://www.w3.org/2000/svg" viewBox="0 0 415 167" role="img" aria-label="AIOS">
  <defs>
    <linearGradient id="aios-prism" gradientUnits="userSpaceOnUse" x1="16.0" y1="0" x2="198.2" y2="0">
      <stop offset="0" stop-color="#8b5cf6"/>
      <stop offset="0.5" stop-color="#10b981"/>
      <stop offset="1" stop-color="#84cc16"/>
    </linearGradient>
  </defs>
  <g fill="url(#aios-prism)">
    <path d="M 159.48 118.21 C 159.45 118.48 159.32 119.31 159.27 119.86 C 159.23 120.41 159.23 120.97 159.20 121.52 C 159.16 122.08 159.11 122.63 159.06 123.18 C 159.00 123.73 158.93 124.28 158.85 124.83 C 158.77 125.38 158.68 125.93 158.58 126.47 C 158.48 127.02 158.37 127.56 158.25 128.10 C 158.12 128.64 157.99 129.18 157.83 129.72 C 157.68 130.25 157.51 130.78 157.33 131.30 C 157.15 131.82 156.95 132.35 156.74 132.86 C 156.52 133.37 156.29 133.87 156.04 134.36 C 155.78 134.86 155.51 135.34 155.21 135.81 C 154.92 136.28 154.61 136.74 154.28 137.19 C 153.94 137.63 153.59 138.06 153.21 138.47 C 152.84 138.88 152.45 139.27 152.04 139.65 C 151.63 140.02 151.20 140.37 150.75 140.69 C 150.29 141.01 149.81 141.30 149.32 141.54 C 148.82 141.79 148.31 142.01 147.78 142.18 C 147.26 142.35 146.72 142.50 146.17 142.59 C 145.63 142.68 145.07 142.72 144.51 142.72 C 143.96 142.71 143.41 142.64 142.86 142.54 C 142.32 142.45 141.78 142.30 141.25 142.14 C 140.72 141.98 140.19 141.79 139.68 141.58 C 139.17 141.37 138.66 141.13 138.17 140.88 C 137.68 140.63 137.19 140.35 136.72 140.06 C 136.25 139.77 135.80 139.45 135.35 139.13 C 134.90 138.80 134.46 138.46 134.03 138.11 C 133.60 137.76 133.18 137.39 132.77 137.02 C 132.36 136.65 131.96 136.26 131.57 135.87 C 131.17 135.48 130.78 135.08 130.41 134.68 C 130.03 134.27 129.66 133.86 129.30 133.44 C 128.94 133.02 128.59 132.58 128.24 132.15 C 127.90 131.72 127.56 131.28 127.22 130.84 C 126.89 130.40 126.56 129.95 126.23 129.50 C 125.91 129.05 125.60 128.59 125.29 128.13 C 124.98 127.67 124.69 127.20 124.39 126.73 C 124.09 126.26 123.80 125.79 123.51 125.32 C 123.22 124.84 122.93 124.37 122.65 123.89 C 122.36 123.42 122.08 122.94 121.81 122.46 C 121.53 121.97 121.26 121.49 120.99 121.00 C 120.73 120.52 120.47 120.02 120.22 119.53 C 119.96 119.04 119.72 118.54 119.47 118.05 C 119.22 117.55 118.97 117.05 118.73 116.56 C 118.48 116.06 118.23 115.56 117.99 115.06 C 117.75 114.56 117.51 114.06 117.28 113.56 C 117.05 113.05 116.82 112.55 116.59 112.04 C 116.36 111.54 116.13 111.03 115.90 110.53 C 115.67 110.02 115.44 109.52 115.21 109.01 C 114.99 108.51 114.76 108.00 114.53 107.50 C 114.30 106.99 114.08 106.48 113.85 105.98 C 113.62 105.47 113.39 104.97 113.16 104.46 C 112.93 103.96 112.69 103.46 112.46 102.95 C 112.23 102.45 112.00 101.94 111.77 101.44 C 111.54 100.93 111.32 100.42 111.09 99.92 C 110.87 99.41 110.65 98.90 110.43 98.39 C 110.20 97.89 109.98 97.38 109.75 96.87 C 109.53 96.36 109.30 95.86 109.07 95.35 C 108.84 94.85 108.61 94.34 108.38 93.84 C 108.16 93.33 107.93 92.83 107.71 92.32 C 107.48 91.81 107.26 91.30 107.03 90.80 C 106.80 90.29 106.58 89.78 106.35 89.28 C 106.12 88.77 105.89 88.27 105.66 87.76 C 105.43 87.26 105.21 86.75 104.98 86.24 C 104.75 85.74 104.53 85.23 104.30 84.73 C 104.07 84.22 103.84 83.72 103.61 83.21 C 103.38 82.71 103.14 82.20 102.92 81.70 C 102.69 81.19 102.47 80.68 102.25 80.18 C 102.03 79.67 101.80 79.16 101.58 78.65 C 101.35 78.14 101.12 77.64 100.90 77.13 C 100.67 76.63 100.44 76.12 100.21 75.62 C 99.99 75.11 99.77 74.60 99.54 74.09 C 99.32 73.59 99.09 73.08 98.87 72.57 C 98.64 72.07 98.41 71.56 98.18 71.06 C 97.95 70.55 97.71 70.05 97.48 69.55 C 97.25 69.04 97.02 68.54 96.80 68.03 C 96.57 67.52 96.36 67.01 96.14 66.50 C 95.92 65.99 95.70 65.48 95.47 64.97 C 95.25 64.47 95.02 63.96 94.79 63.46 C 94.56 62.95 94.33 62.45 94.10 61.94 C 93.88 61.44 93.65 60.93 93.42 60.42 C 93.20 59.92 92.97 59.41 92.75 58.90 C 92.52 58.40 92.30 57.89 92.07 57.38 C 91.84 56.88 91.60 56.37 91.37 55.87 C 91.14 55.37 90.91 54.86 90.68 54.36 C 90.45 53.85 90.23 53.34 90.00 52.84 C 89.77 52.33 89.54 51.83 89.32 51.32 C 89.09 50.82 88.86 50.31 88.63 49.81 C 88.39 49.30 88.17 48.80 87.92 48.30 C 87.67 47.80 87.27 47.07 87.14 46.83 C 87.02 47.08 86.66 47.83 86.42 48.33 C 86.17 48.84 85.93 49.34 85.69 49.85 C 85.45 50.35 85.20 50.85 84.97 51.35 C 84.73 51.86 84.50 52.37 84.27 52.88 C 84.04 53.38 83.82 53.90 83.59 54.41 C 83.36 54.91 83.14 55.43 82.91 55.93 C 82.68 56.44 82.45 56.95 82.22 57.46 C 81.99 57.97 81.75 58.47 81.52 58.98 C 81.29 59.49 81.06 59.99 80.83 60.50 C 80.60 61.01 80.37 61.52 80.14 62.03 C 79.91 62.54 79.68 63.05 79.45 63.56 C 79.22 64.06 78.99 64.57 78.76 65.08 C 78.53 65.59 78.30 66.10 78.07 66.61 C 77.84 67.11 77.62 67.63 77.40 68.14 C 77.17 68.65 76.94 69.16 76.72 69.67 C 76.49 70.18 76.26 70.68 76.02 71.19 C 75.79 71.70 75.56 72.20 75.33 72.71 C 75.09 73.22 74.86 73.73 74.62 74.23 C 74.39 74.74 74.16 75.25 73.93 75.76 C 73.70 76.26 73.47 76.77 73.24 77.28 C 73.00 77.79 72.77 78.29 72.54 78.80 C 72.31 79.31 72.09 79.82 71.86 80.33 C 71.63 80.84 71.40 81.35 71.17 81.86 C 70.95 82.37 70.71 82.87 70.48 83.38 C 70.25 83.89 70.02 84.40 69.80 84.91 C 69.57 85.42 69.34 85.93 69.12 86.44 C 68.89 86.95 68.66 87.46 68.43 87.97 C 68.21 88.47 67.98 88.98 67.74 89.49 C 67.51 90.00 67.27 90.50 67.03 91.01 C 66.80 91.51 66.56 92.02 66.33 92.52 C 66.09 93.03 65.86 93.54 65.63 94.04 C 65.39 94.55 65.16 95.06 64.93 95.57 C 64.70 96.07 64.47 96.58 64.25 97.09 C 64.02 97.60 63.78 98.11 63.55 98.62 C 63.32 99.12 63.08 99.63 62.85 100.14 C 62.62 100.65 62.40 101.16 62.17 101.67 C 61.95 102.18 61.72 102.69 61.49 103.20 C 61.26 103.70 61.02 104.21 60.78 104.71 C 60.55 105.22 60.31 105.73 60.08 106.23 C 59.85 106.74 59.63 107.25 59.40 107.76 C 59.17 108.27 58.94 108.78 58.71 109.29 C 58.48 109.79 58.25 110.30 58.02 110.81 C 57.79 111.32 57.56 111.83 57.32 112.33 C 57.09 112.84 56.87 113.35 56.64 113.86 C 56.41 114.37 56.18 114.88 55.95 115.39 C 55.73 115.90 55.50 116.40 55.27 116.91 C 55.03 117.42 54.80 117.93 54.57 118.44 C 54.34 118.95 54.11 119.45 53.88 119.96 C 53.65 120.47 53.42 120.98 53.19 121.49 C 52.96 122.00 52.74 122.51 52.51 123.02 C 52.28 123.52 52.04 124.03 51.81 124.54 C 51.58 125.04 51.34 125.55 51.11 126.06 C 50.88 126.57 50.66 127.08 50.43 127.59 C 50.20 128.10 49.98 128.61 49.75 129.12 C 49.52 129.62 49.29 130.13 49.06 130.64 C 48.83 131.15 48.60 131.66 48.36 132.16 C 48.13 132.67 47.90 133.18 47.67 133.69 C 47.45 134.20 47.23 134.71 47.00 135.22 C 46.77 135.73 46.54 136.24 46.31 136.74 C 46.08 137.25 45.84 137.76 45.61 138.26 C 45.37 138.77 45.14 139.28 44.91 139.79 C 44.68 140.29 44.45 140.81 44.21 141.31 C 43.97 141.81 43.58 142.55 43.45 142.80 C 43.17 142.80 42.31 142.80 41.74 142.80 C 41.17 142.80 40.60 142.80 40.02 142.80 C 39.45 142.80 38.88 142.80 38.31 142.80 C 37.73 142.80 37.16 142.80 36.59 142.80 C 36.02 142.80 35.45 142.80 34.88 142.80 C 34.30 142.80 33.73 142.80 33.16 142.80 C 32.59 142.80 32.01 142.80 31.44 142.80 C 30.87 142.80 30.30 142.80 29.73 142.80 C 29.16 142.80 28.58 142.80 28.01 142.80 C 27.44 142.80 26.87 142.80 26.30 142.80 C 25.72 142.80 25.15 142.80 24.58 142.80 C 24.01 142.80 23.44 142.80 22.86 142.80 C 22.29 142.80 21.72 142.80 21.15 142.80 C 20.58 142.80 20.00 142.80 19.43 142.80 C 18.86 142.80 18.29 142.80 17.72 142.80 C 17.14 142.80 16.29 142.80 16.00 142.80 C 16.13 142.55 16.53 141.82 16.79 141.33 C 17.05 140.84 17.31 140.35 17.57 139.86 C 17.83 139.37 18.10 138.88 18.36 138.39 C 18.63 137.90 18.90 137.41 19.16 136.92 C 19.43 136.44 19.69 135.95 19.95 135.45 C 20.21 134.96 20.47 134.47 20.73 133.98 C 21.00 133.49 21.26 133.00 21.52 132.51 C 21.79 132.02 22.06 131.54 22.32 131.05 C 22.59 130.56 22.85 130.07 23.12 129.58 C 23.38 129.09 23.64 128.60 23.91 128.11 C 24.17 127.62 24.44 127.13 24.70 126.64 C 24.96 126.15 25.23 125.66 25.49 125.17 C 25.75 124.69 26.02 124.20 26.28 123.71 C 26.54 123.21 26.80 122.72 27.06 122.23 C 27.32 121.74 27.58 121.25 27.84 120.75 C 28.10 120.26 28.36 119.77 28.62 119.28 C 28.89 118.79 29.14 118.30 29.41 117.81 C 29.67 117.32 29.93 116.83 30.19 116.34 C 30.46 115.85 30.72 115.36 30.98 114.87 C 31.24 114.38 31.50 113.88 31.76 113.39 C 32.02 112.90 32.29 112.42 32.55 111.92 C 32.81 111.43 33.06 110.94 33.32 110.44 C 33.57 109.95 33.83 109.46 34.09 108.97 C 34.35 108.47 34.62 107.99 34.88 107.50 C 35.14 107.00 35.39 106.51 35.65 106.02 C 35.91 105.53 36.17 105.03 36.43 104.54 C 36.70 104.05 36.97 103.57 37.23 103.08 C 37.50 102.59 37.77 102.10 38.03 101.61 C 38.29 101.12 38.55 100.63 38.81 100.14 C 39.07 99.65 39.33 99.15 39.59 98.66 C 39.85 98.17 40.11 97.68 40.38 97.19 C 40.64 96.70 40.91 96.22 41.18 95.73 C 41.44 95.24 41.71 94.75 41.97 94.26 C 42.23 93.77 42.49 93.28 42.75 92.79 C 43.01 92.30 43.28 91.81 43.54 91.32 C 43.80 90.83 44.07 90.34 44.33 89.85 C 44.59 89.36 44.86 88.87 45.12 88.38 C 45.38 87.89 45.65 87.40 45.91 86.91 C 46.17 86.42 46.44 85.93 46.70 85.44 C 46.96 84.95 47.23 84.46 47.49 83.97 C 47.75 83.48 48.00 82.98 48.26 82.49 C 48.52 82.00 48.78 81.51 49.05 81.02 C 49.32 80.53 49.59 80.05 49.86 79.56 C 50.12 79.08 50.39 78.59 50.65 78.10 C 50.92 77.61 51.17 77.11 51.43 76.62 C 51.70 76.13 51.96 75.64 52.22 75.15 C 52.49 74.66 52.75 74.17 53.01 73.68 C 53.28 73.19 53.54 72.71 53.80 72.21 C 54.07 71.73 54.33 71.23 54.59 70.74 C 54.85 70.25 55.10 69.75 55.36 69.26 C 55.62 68.77 55.89 68.29 56.15 67.80 C 56.42 67.31 56.68 66.82 56.95 66.33 C 57.22 65.84 57.48 65.36 57.75 64.87 C 58.02 64.38 58.28 63.89 58.55 63.40 C 58.81 62.91 59.08 62.42 59.34 61.93 C 59.60 61.44 59.85 60.94 60.10 60.45 C 60.36 59.96 60.62 59.46 60.88 58.97 C 61.15 58.49 61.42 58.00 61.68 57.51 C 61.95 57.02 62.22 56.54 62.49 56.05 C 62.75 55.56 63.01 55.07 63.27 54.58 C 63.54 54.09 63.80 53.60 64.06 53.11 C 64.32 52.62 64.58 52.13 64.85 51.64 C 65.11 51.15 65.36 50.65 65.63 50.16 C 65.89 49.67 66.15 49.18 66.42 48.69 C 66.68 48.20 66.95 47.72 67.22 47.23 C 67.48 46.74 67.75 46.25 68.01 45.76 C 68.28 45.27 68.54 44.78 68.80 44.29 C 69.07 43.81 69.33 43.32 69.60 42.83 C 69.87 42.34 70.14 41.86 70.41 41.37 C 70.68 40.88 70.94 40.39 71.20 39.90 C 71.47 39.41 71.73 38.92 71.99 38.43 C 72.26 37.94 72.52 37.45 72.78 36.96 C 73.04 36.47 73.29 35.98 73.55 35.49 C 73.81 34.99 74.07 34.50 74.34 34.01 C 74.61 33.53 74.87 33.04 75.15 32.56 C 75.43 32.07 75.71 31.60 76.02 31.13 C 76.33 30.67 76.66 30.22 77.01 29.79 C 77.35 29.35 77.72 28.93 78.11 28.53 C 78.49 28.13 78.90 27.75 79.32 27.40 C 79.75 27.04 80.19 26.70 80.65 26.39 C 81.11 26.07 81.59 25.78 82.08 25.52 C 82.57 25.26 83.07 25.03 83.59 24.83 C 84.11 24.63 84.65 24.47 85.19 24.34 C 85.73 24.21 86.28 24.11 86.83 24.06 C 87.38 24.01 87.94 24.00 88.50 24.03 C 89.05 24.06 89.61 24.13 90.15 24.24 C 90.69 24.35 91.24 24.48 91.76 24.66 C 92.29 24.84 92.80 25.07 93.29 25.32 C 93.79 25.57 94.27 25.86 94.73 26.17 C 95.19 26.47 95.64 26.80 96.08 27.15 C 96.51 27.50 96.93 27.87 97.33 28.26 C 97.72 28.64 98.10 29.06 98.46 29.48 C 98.81 29.91 99.14 30.36 99.46 30.82 C 99.77 31.27 100.06 31.75 100.34 32.23 C 100.62 32.71 100.88 33.20 101.15 33.69 C 101.41 34.18 101.66 34.68 101.92 35.17 C 102.18 35.66 102.44 36.15 102.71 36.64 C 102.97 37.13 103.25 37.61 103.51 38.10 C 103.78 38.59 104.05 39.07 104.32 39.56 C 104.58 40.05 104.85 40.54 105.12 41.03 C 105.38 41.51 105.65 42.00 105.91 42.50 C 106.17 42.99 106.43 43.48 106.69 43.97 C 106.95 44.46 107.22 44.95 107.48 45.44 C 107.74 45.93 108.00 46.42 108.27 46.91 C 108.53 47.40 108.80 47.89 109.07 48.37 C 109.33 48.86 109.61 49.34 109.87 49.83 C 110.14 50.32 110.40 50.81 110.66 51.30 C 110.93 51.79 111.18 52.29 111.43 52.78 C 111.69 53.28 111.95 53.77 112.21 54.26 C 112.47 54.75 112.74 55.24 113.00 55.73 C 113.26 56.22 113.52 56.71 113.78 57.20 C 114.04 57.69 114.30 58.18 114.57 58.67 C 114.83 59.16 115.10 59.65 115.37 60.14 C 115.63 60.63 115.90 61.11 116.16 61.60 C 116.42 62.09 116.68 62.59 116.93 63.08 C 117.19 63.57 117.44 64.07 117.70 64.56 C 117.96 65.05 118.23 65.54 118.49 66.03 C 118.76 66.52 119.02 67.01 119.28 67.50 C 119.55 67.99 119.81 68.48 120.08 68.97 C 120.34 69.46 120.60 69.95 120.87 70.44 C 121.13 70.93 121.39 71.42 121.66 71.91 C 121.92 72.40 122.18 72.89 122.43 73.38 C 122.69 73.87 122.94 74.37 123.20 74.86 C 123.46 75.36 123.72 75.84 123.99 76.33 C 124.26 76.82 124.53 77.31 124.80 77.79 C 125.06 78.28 125.33 78.77 125.60 79.26 C 125.86 79.75 126.12 80.24 126.39 80.73 C 126.65 81.22 126.92 81.70 127.19 82.19 C 127.46 82.68 127.73 83.16 127.99 83.65 C 128.26 84.14 128.52 84.63 128.78 85.12 C 129.05 85.61 129.30 86.10 129.57 86.59 C 129.83 87.08 130.10 87.57 130.37 88.06 C 130.64 88.54 130.91 89.03 131.17 89.52 C 131.44 90.01 131.70 90.50 131.96 90.99 C 132.22 91.48 132.48 91.97 132.74 92.46 C 133.01 92.95 133.27 93.44 133.54 93.93 C 133.80 94.42 134.07 94.90 134.34 95.39 C 134.60 95.88 134.86 96.37 135.12 96.86 C 135.39 97.35 135.65 97.85 135.91 98.33 C 136.17 98.83 136.44 99.32 136.69 99.81 C 136.96 100.30 137.21 100.79 137.47 101.28 C 137.72 101.78 137.98 102.27 138.24 102.76 C 138.50 103.26 138.76 103.74 139.02 104.23 C 139.29 104.73 139.55 105.22 139.81 105.71 C 140.07 106.20 140.34 106.69 140.61 107.17 C 140.88 107.66 141.16 108.14 141.44 108.62 C 141.73 109.09 142.01 109.57 142.30 110.04 C 142.60 110.52 142.90 110.99 143.20 111.45 C 143.51 111.91 143.82 112.37 144.14 112.83 C 144.46 113.29 144.78 113.74 145.11 114.19 C 145.44 114.63 145.78 115.08 146.13 115.51 C 146.48 115.94 146.83 116.37 147.20 116.79 C 147.57 117.20 147.94 117.61 148.34 118.01 C 148.73 118.40 149.13 118.79 149.55 119.15 C 149.97 119.51 150.40 119.87 150.87 120.17 C 151.33 120.48 151.82 120.77 152.33 120.97 C 152.84 121.18 153.39 121.34 153.94 121.39 C 154.48 121.43 155.06 121.38 155.59 121.24 C 156.11 121.09 156.62 120.82 157.08 120.52 C 157.55 120.22 157.96 119.83 158.36 119.45 C 158.76 119.06 159.29 118.42 159.48 118.21 Z"/>
    <path d="M 55.98 115.69 L 121.67 99.79 L 117.77 83.64 L 52.08 99.54 Z"/>
    <path d="M 177.48 142.80 V 32.80 H 198.22 V 142.80 Z"/>
  </g>
  <g fill="#fafafa">
    <path d="M 258.71 145.00 Q 237.97 145.00 225.71 133.61 Q 213.45 122.21 213.45 101.00 V 74.60 Q 213.45 53.39 225.71 41.99 Q 237.97 30.60 258.71 30.60 Q 279.45 30.60 291.71 41.99 Q 303.97 53.39 303.97 74.60 V 101.00 Q 303.97 122.21 291.71 133.61 Q 279.45 145.00 258.71 145.00 Z M 258.71 126.46 Q 270.34 126.46 276.78 119.70 Q 283.22 112.94 283.22 101.63 V 73.97 Q 283.22 62.66 276.78 55.90 Q 270.34 49.14 258.71 49.14 Q 247.24 49.14 240.72 55.90 Q 234.19 62.66 234.19 73.97 V 101.63 Q 234.19 112.94 240.72 119.70 Q 247.24 126.46 258.71 126.46 Z"/>
    <path d="M 357.38 145.00 Q 344.65 145.00 334.91 140.44 Q 325.17 135.89 319.67 127.40 Q 314.17 118.91 314.17 106.97 V 102.57 H 334.59 V 106.97 Q 334.59 116.87 340.72 121.82 Q 346.85 126.77 357.38 126.77 Q 368.07 126.77 373.33 122.53 Q 378.59 118.29 378.59 111.69 Q 378.59 107.13 376.00 104.30 Q 373.41 101.47 368.46 99.66 Q 363.51 97.86 356.44 96.29 L 352.82 95.50 Q 341.51 92.99 333.42 89.14 Q 325.32 85.29 321.00 79.00 Q 316.68 72.71 316.68 62.66 Q 316.68 52.60 321.47 45.45 Q 326.27 38.30 334.99 34.45 Q 343.71 30.60 355.49 30.60 Q 367.28 30.60 376.47 34.61 Q 385.67 38.61 390.93 46.55 Q 396.19 54.49 396.19 66.43 V 71.14 H 375.77 V 66.43 Q 375.77 60.14 373.33 56.29 Q 370.89 52.44 366.34 50.64 Q 361.78 48.83 355.49 48.83 Q 346.07 48.83 341.59 52.36 Q 337.11 55.90 337.11 62.03 Q 337.11 66.11 339.23 68.94 Q 341.35 71.77 345.59 73.66 Q 349.84 75.54 356.44 76.96 L 360.05 77.74 Q 371.84 80.26 380.56 84.19 Q 389.28 88.11 394.15 94.56 Q 399.02 101.00 399.02 111.06 Q 399.02 121.11 393.92 128.74 Q 388.81 136.36 379.46 140.68 Q 370.11 145.00 357.38 145.00 Z"/>
  </g>
</svg>
